<svg xmlns="http://www.w3.org/2000/svg" viewBox="0 0 500 500"><g id="freepik--Page--inject-204"><rect x="120.22" y="86.46" width="264.33" height="195.06" rx="3.88" style="fill:#407BFF"></rect><rect x="120.22" y="86.46" width="264.33" height="195.06" rx="3.88" style="fill:#fff;opacity:0.6000000000000001"></rect><path d="M171.73,86.46H125.17a5,5,0,0,0-5,5V276.58a5,5,0,0,0,5,4.95h46.56Z" style="fill:#fff;opacity:0.30000000000000004"></path><path d="M379.61,86.46H125.17a5,5,0,0,0-5,5v12.9H384.55V91.41A5,5,0,0,0,379.61,86.46Z" style="fill:#263238"></path><path d="M128.86,92.8a.87.87,0,1,1,0-1.73h6.81a.87.87,0,0,1,0,1.73Z" style="fill:#fff"></path><path d="M128.86,96.25a.87.87,0,1,1,0-1.73h6.81a.87.87,0,0,1,0,1.73Z" style="fill:#fff"></path><path d="M128.86,99.71a.87.87,0,1,1,0-1.73h6.81a.87.87,0,0,1,0,1.73Z" style="fill:#fff"></path><rect x="180.83" y="115.79" width="22.28" height="61.74" rx="2.19" style="fill:#fff;opacity:0.7000000000000001"></rect><rect x="208.68" y="115.79" width="22.28" height="61.74" rx="2.19" style="fill:#fff;opacity:0.4"></rect><rect x="236.53" y="115.79" width="22.28" height="61.74" rx="2.19" style="fill:#fff;opacity:0.7000000000000001"></rect><rect x="264.38" y="115.79" width="22.28" height="61.74" rx="2.19" style="fill:#fff;opacity:0.4"></rect><rect x="292.23" y="115.79" width="22.28" height="61.74" rx="2.19" style="fill:#fff;opacity:0.7000000000000001"></rect><rect x="320.08" y="115.79" width="22.28" height="61.74" rx="2.19" style="fill:#fff;opacity:0.4"></rect><rect x="347.93" y="115.79" width="22.28" height="61.74" rx="2.19" style="fill:#fff;opacity:0.7000000000000001"></rect><path d="M238.94,215.38h-.8v1H237v-1h-2.62v-.76l2.3-3.09h1.18l-2.13,2.93h1.31v-.91h1.06v.91h.8Z"></path><path d="M242.45,213.77a1.35,1.35,0,0,1,.49,1.1,1.49,1.49,0,0,1-.22.81,1.65,1.65,0,0,1-.68.59,2.67,2.67,0,0,1-1.12.21,3.86,3.86,0,0,1-1-.13,2.51,2.51,0,0,1-.84-.39l.44-.86a2,2,0,0,0,.64.32,2.36,2.36,0,0,0,.75.12,1.21,1.21,0,0,0,.67-.17.54.54,0,0,0,.24-.47.53.53,0,0,0-.25-.47,1.75,1.75,0,0,0-.89-.16h-1.24l.25-2.74h3v.9h-2l-.08.93h.4A2.36,2.36,0,0,1,242.45,213.77Z"></path><path d="M243.59,213.79a1.57,1.57,0,0,1,0-1.95,1.21,1.21,0,0,1,1.74,0,1.61,1.61,0,0,1,0,1.95,1.21,1.21,0,0,1-1.74,0Zm1.24-.4a1,1,0,0,0,.14-.57,1,1,0,0,0-.14-.58.43.43,0,0,0-.37-.2.44.44,0,0,0-.37.2,1,1,0,0,0-.14.58,1,1,0,0,0,.14.57.44.44,0,0,0,.37.2A.43.43,0,0,0,244.83,213.39Zm2.53-1.86h.83l-3.33,4.87H244Zm-.22,4.76a1.07,1.07,0,0,1-.42-.47,1.46,1.46,0,0,1-.16-.71,1.49,1.49,0,0,1,.16-.71,1.13,1.13,0,0,1,.42-.47,1.21,1.21,0,0,1,.63-.16,1.14,1.14,0,0,1,.87.36,1.38,1.38,0,0,1,.34,1,1.36,1.36,0,0,1-.34,1,1.11,1.11,0,0,1-.87.37A1.21,1.21,0,0,1,247.14,216.29Zm1-.6a1,1,0,0,0,.13-.58,1,1,0,0,0-.13-.57.45.45,0,0,0-.74,0,1,1,0,0,0-.14.58.94.94,0,0,0,.14.58.43.43,0,0,0,.37.2A.44.44,0,0,0,248.14,215.69Z"></path><path d="M314.51,213.53a1.62,1.62,0,0,1,.6.53,1.46,1.46,0,0,1,.22.8,1.54,1.54,0,0,1-.24.86,1.67,1.67,0,0,1-.66.57,2.23,2.23,0,0,1-.94.19,2.05,2.05,0,0,1-1.6-.62,2.54,2.54,0,0,1-.58-1.79,3.1,3.1,0,0,1,.31-1.42,2.07,2.07,0,0,1,.88-.9,2.69,2.69,0,0,1,1.3-.31,3.14,3.14,0,0,1,.75.09,1.94,1.94,0,0,1,.6.25l-.41.83a1.58,1.58,0,0,0-.92-.25,1.33,1.33,0,0,0-1,.36,1.57,1.57,0,0,0-.39,1.06,1.63,1.63,0,0,1,1.21-.44A2,2,0,0,1,314.51,213.53Zm-.49,1.92a.75.75,0,0,0,0-1.06.88.88,0,0,0-.61-.2.92.92,0,0,0-.6.2.7.7,0,0,0,0,1.05,1.05,1.05,0,0,0,1.22,0Z"></path><path d="M318.94,213.77a1.38,1.38,0,0,1,.49,1.1,1.58,1.58,0,0,1-.22.81,1.65,1.65,0,0,1-.68.59,2.71,2.71,0,0,1-1.13.21,3.83,3.83,0,0,1-1-.13,2.66,2.66,0,0,1-.85-.39l.45-.86a1.92,1.92,0,0,0,.64.32,2.34,2.34,0,0,0,.74.12,1.16,1.16,0,0,0,.67-.17.53.53,0,0,0,.25-.47.54.54,0,0,0-.26-.47,1.71,1.71,0,0,0-.88-.16h-1.24l.25-2.74h3v.9h-2l-.08.93h.4A2.38,2.38,0,0,1,318.94,213.77Z"></path><path d="M320.07,213.79a1.61,1.61,0,0,1,0-1.95,1.22,1.22,0,0,1,1.75,0,1.61,1.61,0,0,1,0,1.95,1.22,1.22,0,0,1-1.75,0Zm1.25-.4a1,1,0,0,0,.13-.57,1,1,0,0,0-.13-.58.44.44,0,0,0-.74,0,1,1,0,0,0-.14.58,1,1,0,0,0,.14.57.44.44,0,0,0,.74,0Zm2.53-1.86h.83l-3.33,4.87h-.83Zm-.22,4.76a1.16,1.16,0,0,1-.43-.47,1.58,1.58,0,0,1-.15-.71,1.61,1.61,0,0,1,.15-.71,1.22,1.22,0,0,1,.43-.47,1.27,1.27,0,0,1,1.5.2,1.42,1.42,0,0,1,.34,1,1.41,1.41,0,0,1-.34,1,1.13,1.13,0,0,1-.88.37A1.18,1.18,0,0,1,323.63,216.29Zm1-.6a1,1,0,0,0,.13-.58,1,1,0,0,0-.13-.57.44.44,0,0,0-.38-.2.44.44,0,0,0-.36.19,1,1,0,0,0-.14.58.94.94,0,0,0,.14.58.42.42,0,0,0,.36.2A.44.44,0,0,0,324.63,215.69Z"></path><path d="M329.37,98a2,2,0,0,1-1.21.5v.78h-.69v-.76a4,4,0,0,1-1-.18,2.62,2.62,0,0,1-.75-.37l.39-.85a2.41,2.41,0,0,0,.62.32,2.59,2.59,0,0,0,.73.17V96.42a5.21,5.21,0,0,1-.84-.27,1.35,1.35,0,0,1-.57-.43,1.13,1.13,0,0,1-.23-.74,1.36,1.36,0,0,1,.42-1,2,2,0,0,1,1.22-.5v-.77h.69v.76a3,3,0,0,1,1.42.42l-.35.86a3,3,0,0,0-1.07-.37v1.19a5.2,5.2,0,0,1,.83.25,1.59,1.59,0,0,1,.57.43,1.13,1.13,0,0,1,.23.74A1.33,1.33,0,0,1,329.37,98Zm-2.29-2.76a1.18,1.18,0,0,0,.39.18v-1a.71.71,0,0,0-.39.19.44.44,0,0,0-.13.32A.39.39,0,0,0,327.08,95.21Zm1.46,2.16a.41.41,0,0,0,.12-.3.36.36,0,0,0-.12-.28,1.12,1.12,0,0,0-.38-.2v1A.79.79,0,0,0,328.54,97.37Z" style="fill:#fff"></path><path d="M332.06,93.54v4.88h-1.13v-4h-1v-.91Z" style="fill:#fff"></path><path d="M336.55,97.5v.92h-3.68v-.74l1.88-1.77a1.9,1.9,0,0,0,.4-.49.9.9,0,0,0,.11-.41.56.56,0,0,0-.2-.45,1,1,0,0,0-.58-.15,1.34,1.34,0,0,0-.58.12,1.07,1.07,0,0,0-.43.36l-.82-.53a1.94,1.94,0,0,1,.78-.66,2.66,2.66,0,0,1,1.15-.24,2.33,2.33,0,0,1,.95.18,1.4,1.4,0,0,1,.64.5,1.28,1.28,0,0,1,.22.76,1.7,1.7,0,0,1-.16.74,3,3,0,0,1-.65.8l-1.12,1.06Z" style="fill:#fff"></path><path d="M337.25,98.28a.68.68,0,0,1-.2-.49.63.63,0,0,1,.2-.48.7.7,0,0,1,1,0,.62.62,0,0,1,.19.48.67.67,0,0,1-.19.49.7.7,0,0,1-1,0Z" style="fill:#fff"></path><path d="M339.83,98.2a2.05,2.05,0,0,1-.74-.87,3.54,3.54,0,0,1,0-2.71,2.09,2.09,0,0,1,.74-.86,2,2,0,0,1,1.08-.3,2,2,0,0,1,1.08.3,2,2,0,0,1,.74.86,3.54,3.54,0,0,1,0,2.71,2,2,0,0,1-2.9.87Zm1.78-1a2.15,2.15,0,0,0,.26-1.18,2.13,2.13,0,0,0-.26-1.18.81.81,0,0,0-1.39,0A2.13,2.13,0,0,0,340,96a2.15,2.15,0,0,0,.26,1.18.81.81,0,0,0,1.39,0Z" style="fill:#fff"></path><path d="M346.86,94.08a2.52,2.52,0,0,1,.58,1.79,3,3,0,0,1-.31,1.42,2,2,0,0,1-.87.9,2.63,2.63,0,0,1-1.3.31,3.08,3.08,0,0,1-.75-.09,1.84,1.84,0,0,1-.6-.25l.41-.82a1.61,1.61,0,0,0,.92.24,1.3,1.3,0,0,0,1-.37,1.52,1.52,0,0,0,.39-1,1.65,1.65,0,0,1-1.21.44,1.8,1.8,0,0,1-.85-.19,1.5,1.5,0,0,1-.61-.53,1.44,1.44,0,0,1-.22-.8,1.57,1.57,0,0,1,.24-.86,1.6,1.6,0,0,1,.67-.56,2,2,0,0,1,.93-.2A2.07,2.07,0,0,1,346.86,94.08ZM346,95.55a.69.69,0,0,0,.23-.53.67.67,0,0,0-.22-.52,1,1,0,0,0-.63-.2.9.9,0,0,0-.59.2.65.65,0,0,0-.22.52.67.67,0,0,0,.22.54.93.93,0,0,0,.61.2A.88.88,0,0,0,346,95.55Z" style="fill:#fff"></path><path d="M351.87,96.33a1.18,1.18,0,0,1,.2.67,1.27,1.27,0,0,1-.26.79,1.6,1.6,0,0,1-.73.52,3.14,3.14,0,0,1-2.15,0,1.57,1.57,0,0,1-.72-.52A1.26,1.26,0,0,1,348,97a1.17,1.17,0,0,1,.19-.67,1.36,1.36,0,0,1,.55-.48,1.13,1.13,0,0,1-.42-.42,1.11,1.11,0,0,1-.15-.58,1.19,1.19,0,0,1,.24-.74,1.49,1.49,0,0,1,.66-.48,2.66,2.66,0,0,1,1-.17,2.74,2.74,0,0,1,1,.17,1.47,1.47,0,0,1,.67.48,1.25,1.25,0,0,1,.23.74,1.21,1.21,0,0,1-.14.58,1.16,1.16,0,0,1-.43.42A1.3,1.3,0,0,1,351.87,96.33Zm-1.19,1.15a.63.63,0,0,0,.24-.51.6.6,0,0,0-.24-.51,1.08,1.08,0,0,0-.68-.19,1.05,1.05,0,0,0-.66.19.66.66,0,0,0,0,1,1.05,1.05,0,0,0,.66.19A1.08,1.08,0,0,0,350.68,97.48Zm-1.22-3a.59.59,0,0,0,0,.89.92.92,0,0,0,.55.16.93.93,0,0,0,.56-.16.52.52,0,0,0,.21-.44.54.54,0,0,0-.21-.45.87.87,0,0,0-.56-.16A.85.85,0,0,0,349.46,94.45Z" style="fill:#fff"></path><path d="M352.81,98.28a.67.67,0,0,1-.19-.49.62.62,0,0,1,.19-.48.7.7,0,0,1,1,0,.63.63,0,0,1,.2.48.68.68,0,0,1-.2.49.7.7,0,0,1-1,0Z" style="fill:#fff"></path><path d="M357.67,95.78a1.39,1.39,0,0,1,.49,1.1,1.49,1.49,0,0,1-.9,1.4,2.56,2.56,0,0,1-1.13.22,3.85,3.85,0,0,1-1-.14,2.77,2.77,0,0,1-.85-.38l.45-.87a2.15,2.15,0,0,0,.64.33,2.65,2.65,0,0,0,.74.11,1.17,1.17,0,0,0,.67-.16.56.56,0,0,0,.25-.47.51.51,0,0,0-.26-.47,1.69,1.69,0,0,0-.88-.17h-1.25l.26-2.74h3v.91h-2l-.08.92h.4A2.38,2.38,0,0,1,357.67,95.78Z" style="fill:#fff"></path><path d="M359.63,98.2a1.93,1.93,0,0,1-.74-.87,3.54,3.54,0,0,1,0-2.71,1.94,1.94,0,0,1,1.82-1.16,2,2,0,0,1,1.08.3,2.09,2.09,0,0,1,.74.86,3.54,3.54,0,0,1,0,2.71,2.05,2.05,0,0,1-.74.87,2,2,0,0,1-1.08.3A2,2,0,0,1,359.63,98.2Zm1.78-1a2.16,2.16,0,0,0,.25-1.18,2.14,2.14,0,0,0-.25-1.18.8.8,0,0,0-.7-.39.79.79,0,0,0-.7.39,2.14,2.14,0,0,0-.25,1.18,2.16,2.16,0,0,0,.25,1.18.79.79,0,0,0,.7.39A.8.8,0,0,0,361.41,97.16Z" style="fill:#fff"></path><path d="M365.18,93.54v4.88h-1.13v-4h-1v-.91Z" style="fill:#fff"></path><path d="M366.19,98.28a.67.67,0,0,1-.19-.49.62.62,0,0,1,.19-.48.7.7,0,0,1,1,0,.63.63,0,0,1,.2.48.68.68,0,0,1-.2.49.7.7,0,0,1-1,0Z" style="fill:#fff"></path><path d="M368.77,98.2a2.05,2.05,0,0,1-.74-.87,3.66,3.66,0,0,1,0-2.71,2.09,2.09,0,0,1,.74-.86,2,2,0,0,1,1.08-.3,1.94,1.94,0,0,1,1.82,1.16,3.54,3.54,0,0,1,0,2.71,1.93,1.93,0,0,1-.74.87,2,2,0,0,1-1.08.3A2,2,0,0,1,368.77,98.2Zm1.78-1a2.15,2.15,0,0,0,.26-1.18,2.13,2.13,0,0,0-.26-1.18.81.81,0,0,0-1.39,0,2.14,2.14,0,0,0-.25,1.18,2.16,2.16,0,0,0,.25,1.18.81.81,0,0,0,1.39,0Z" style="fill:#fff"></path><path d="M373.5,98.2a2.05,2.05,0,0,1-.74-.87,3.54,3.54,0,0,1,0-2.71,2.09,2.09,0,0,1,.74-.86,2,2,0,0,1,1.08-.3,2,2,0,0,1,1.08.3,2,2,0,0,1,.74.86,3.54,3.54,0,0,1,0,2.71,2,2,0,0,1-2.9.87Zm1.78-1a2.15,2.15,0,0,0,.26-1.18,2.13,2.13,0,0,0-.26-1.18.81.81,0,0,0-1.39,0,2.13,2.13,0,0,0-.26,1.18,2.15,2.15,0,0,0,.26,1.18.81.81,0,0,0,1.39,0Z" style="fill:#fff"></path><path d="M189.88,185.24v4.88h-1.13v-4h-1v-.91Z"></path><path d="M191,185.24h2.21a3,3,0,0,1,1.4.31,2.24,2.24,0,0,1,.95.85,2.58,2.58,0,0,1,0,2.56,2.24,2.24,0,0,1-.95.85,3,3,0,0,1-1.4.31H191Zm2.15,3.95a1.65,1.65,0,0,0,1.17-.41,1.59,1.59,0,0,0,0-2.2,1.61,1.61,0,0,0-1.17-.41h-1v3Z"></path><path d="M216.56,185.24v4.88h-1.13v-4h-1v-.91Z"></path><path d="M225.08,185.24l-1.59,4.88h-1.22l-1.07-3.3-1.1,3.3h-1.21l-1.6-4.88h1.17l1.1,3.43,1.15-3.43h1l1.12,3.46,1.13-3.46Z"></path><path d="M245.13,185.24v4.88H244v-4h-1v-.91Z"></path><path d="M250.72,190.12v-2.93l-1.44,2.41h-.51l-1.42-2.34v2.86h-1.06v-4.88h.93l1.83,3,1.79-3h.93v4.88Z"></path><rect x="266.47" y="182.24" width="18.1" height="11.14" rx="4" style="fill:#407BFF"></rect><path d="M273.67,187.7a1.36,1.36,0,0,1,.34.93,1.45,1.45,0,0,1-.23.78,1.46,1.46,0,0,1-.67.57,2.54,2.54,0,0,1-1.12.22,3.42,3.42,0,0,1-1-.14,2.47,2.47,0,0,1-.85-.38l.44-.87a2.15,2.15,0,0,0,.64.33,2.39,2.39,0,0,0,.75.11,1.19,1.19,0,0,0,.67-.16.52.52,0,0,0,.24-.46c0-.4-.3-.6-.91-.6h-.51v-.75l1-1.13h-2.08v-.91h3.41V186l-1.1,1.26A1.71,1.71,0,0,1,273.67,187.7Z" style="fill:#fff"></path><path d="M279.27,190.12v-2.93l-1.43,2.41h-.51l-1.43-2.34v2.86h-1.05v-4.88h.93l1.82,3,1.8-3h.93v4.88Z" style="fill:#fff"></path><path d="M301.3,187.25a1.47,1.47,0,0,1,.6.53,1.44,1.44,0,0,1,.23.8,1.56,1.56,0,0,1-.91,1.42,2.23,2.23,0,0,1-.94.2,2.06,2.06,0,0,1-1.6-.63,2.5,2.5,0,0,1-.58-1.79,3,3,0,0,1,.32-1.42,2.08,2.08,0,0,1,.87-.89,2.6,2.6,0,0,1,1.3-.31,3.08,3.08,0,0,1,.75.09,2,2,0,0,1,.61.24l-.42.83a1.62,1.62,0,0,0-.91-.24,1.34,1.34,0,0,0-1,.36,1.52,1.52,0,0,0-.39,1.05,1.63,1.63,0,0,1,1.21-.43A1.86,1.86,0,0,1,301.3,187.25Zm-.49,1.91a.65.65,0,0,0,.22-.53.67.67,0,0,0-.22-.53.9.9,0,0,0-.61-.2.88.88,0,0,0-.6.21.64.64,0,0,0-.24.52.69.69,0,0,0,.23.53,1,1,0,0,0,.63.2A.88.88,0,0,0,300.81,189.16Z"></path><path d="M307.28,190.12v-2.93l-1.43,2.41h-.51l-1.43-2.34v2.86h-1.06v-4.88h.94l1.82,3,1.8-3h.92l0,4.88Z"></path><path d="M329.66,185.24v4.88h-1.13v-4h-1v-.91Z"></path><path d="M333.15,188.39v1.73H332v-1.74l-1.88-3.14h1.19l1.31,2.17,1.3-2.17h1.11Z"></path><path d="M358.23,187.7a1.36,1.36,0,0,1,.34.93,1.45,1.45,0,0,1-.23.78,1.49,1.49,0,0,1-.68.57,2.47,2.47,0,0,1-1.11.22,3.54,3.54,0,0,1-1-.14,2.5,2.5,0,0,1-.84-.38l.44-.87a2.15,2.15,0,0,0,.64.33,2.35,2.35,0,0,0,.75.11,1.21,1.21,0,0,0,.67-.16.52.52,0,0,0,.24-.46c0-.4-.3-.6-.91-.6H356v-.75l1-1.13h-2.08v-.91h3.41V186l-1.1,1.26A1.71,1.71,0,0,1,358.23,187.7Z"></path><path d="M361.66,188.39v1.73h-1.12v-1.74l-1.89-3.14h1.2l1.3,2.17,1.3-2.17h1.11Z"></path><path d="M178,159.42h0a1.39,1.39,0,0,1,1.17-1.58l26.31-4,28-11.63,28.18-3.76,27.65,9.68,27.62-12h27.91l26.32-8.77a1.39,1.39,0,0,1,1.76.88h0a1.39,1.39,0,0,1-.88,1.76L345.37,139H317.59L289.5,151.17l-28.05-9.82L234.11,145l-28,11.63-26.47,4A1.41,1.41,0,0,1,178,159.42Z" style="fill:#407BFF"></path><path d="M205.5,165.54l-27.26-22.26a1.41,1.41,0,0,1-.2-2h0a1.39,1.39,0,0,1,2-.2l26.29,21.46,27.1-4.51,27.73-10.17,28-13.5,28.12-7.5L345,130.61l26.23-9.18a1.39,1.39,0,0,1,1.77.85h0a1.39,1.39,0,0,1-.85,1.77l-26.85,9.4-27.91-3.72-27.46,7.32-27.73,13.4L234,160.79Z" style="fill:#263238"></path><circle cx="145.98" cy="120.08" r="7.58" transform="translate(-4.42 234.57) rotate(-76.72)" style="fill:#407BFF"></circle><rect x="126.14" y="133" width="39.68" height="10.77" rx="1.54" style="fill:#fff;opacity:0.5"></rect><polygon points="131.29 139.99 129.71 140.82 130.01 139.06 128.73 137.81 130.5 137.55 131.29 135.95 132.08 137.55 133.85 137.81 132.57 139.06 132.87 140.82 131.29 139.99" style="fill:#407BFF"></polygon><polygon points="138.64 139.99 137.06 140.82 137.36 139.06 136.08 137.81 137.85 137.55 138.64 135.95 139.43 137.55 141.2 137.81 139.92 139.06 140.22 140.82 138.64 139.99" style="fill:#407BFF"></polygon><polygon points="145.99 139.99 144.4 140.82 144.71 139.06 143.43 137.81 145.19 137.55 145.99 135.95 146.78 137.55 148.54 137.81 147.26 139.06 147.57 140.82 145.99 139.99" style="fill:#407BFF"></polygon><polygon points="153.33 139.99 151.75 140.82 152.05 139.06 150.77 137.81 152.54 137.55 153.33 135.95 154.12 137.55 155.89 137.81 154.61 139.06 154.91 140.82 153.33 139.99" style="fill:#fff;opacity:0.9"></polygon><polygon points="160.68 139.99 159.1 140.82 159.4 139.06 158.12 137.81 159.89 137.55 160.68 135.95 161.47 137.55 163.24 137.81 161.96 139.06 162.26 140.82 160.68 139.99" style="fill:#fff;opacity:0.9"></polygon><circle cx="145.98" cy="161.77" r="7.58" transform="translate(-45 266.69) rotate(-76.72)" style="fill:#263238"></circle><circle cx="145.98" cy="161.77" r="7.58" transform="translate(-45 266.69) rotate(-76.72)" style="fill:#fff;opacity:0.7000000000000001"></circle><rect x="126.14" y="174.7" width="39.68" height="10.77" rx="1.54" style="fill:#fff;opacity:0.5"></rect><polygon points="131.29 181.68 129.71 182.51 130.01 180.75 128.73 179.51 130.5 179.25 131.29 177.65 132.08 179.25 133.85 179.51 132.57 180.75 132.87 182.51 131.29 181.68" style="fill:#407BFF"></polygon><polygon points="138.64 181.68 137.06 182.51 137.36 180.75 136.08 179.51 137.85 179.25 138.64 177.65 139.43 179.25 141.2 179.51 139.92 180.75 140.22 182.51 138.64 181.68" style="fill:#407BFF"></polygon><polygon points="145.99 181.68 144.4 182.51 144.71 180.75 143.43 179.51 145.19 179.25 145.99 177.65 146.78 179.25 148.54 179.51 147.26 180.75 147.57 182.51 145.99 181.68" style="fill:#fff;opacity:0.9"></polygon><polygon points="153.33 181.68 151.75 182.51 152.05 180.75 150.77 179.51 152.54 179.25 153.33 177.65 154.12 179.25 155.89 179.51 154.61 180.75 154.91 182.51 153.33 181.68" style="fill:#fff;opacity:0.9"></polygon><polygon points="160.68 181.68 159.1 182.51 159.4 180.75 158.12 179.51 159.89 179.25 160.68 177.65 161.47 179.25 163.24 179.51 161.96 180.75 162.26 182.51 160.68 181.68" style="fill:#fff;opacity:0.9"></polygon><circle cx="145.98" cy="203.47" r="7.58" transform="translate(-101.12 162.82) rotate(-45)" style="fill:#407BFF"></circle><circle cx="145.98" cy="203.47" r="7.58" transform="translate(-101.12 162.82) rotate(-45)" style="fill:#fff;opacity:0.30000000000000004"></circle><rect x="126.14" y="216.39" width="39.68" height="10.77" rx="1.54" style="fill:#fff;opacity:0.5"></rect><polygon points="131.29 223.38 129.71 224.21 130.01 222.45 128.73 221.21 130.5 220.95 131.29 219.35 132.08 220.95 133.85 221.21 132.57 222.45 132.87 224.21 131.29 223.38" style="fill:#407BFF"></polygon><polygon points="138.64 223.38 137.06 224.21 137.36 222.45 136.08 221.21 137.85 220.95 138.64 219.35 139.43 220.95 141.2 221.21 139.92 222.45 140.22 224.21 138.64 223.38" style="fill:#407BFF"></polygon><polygon points="145.99 223.38 144.4 224.21 144.71 222.45 143.43 221.21 145.19 220.95 145.99 219.35 146.78 220.95 148.54 221.21 147.26 222.45 147.57 224.21 145.99 223.38" style="fill:#407BFF"></polygon><polygon points="153.33 223.38 151.75 224.21 152.05 222.45 150.77 221.21 152.54 220.95 153.33 219.35 154.12 220.95 155.89 221.21 154.61 222.45 154.91 224.21 153.33 223.38" style="fill:#407BFF"></polygon><polygon points="160.68 223.38 159.1 224.21 159.4 222.45 158.12 221.21 159.89 220.95 160.68 219.35 161.47 220.95 163.24 221.21 161.96 222.45 162.26 224.21 160.68 223.38" style="fill:#fff;opacity:0.9"></polygon><circle cx="145.98" cy="245.17" r="7.58" transform="translate(-130.6 175.04) rotate(-45)" style="fill:#263238"></circle><circle cx="145.98" cy="245.17" r="7.58" transform="translate(-130.6 175.04) rotate(-45)" style="fill:#fff;opacity:0.5"></circle><rect x="126.14" y="258.09" width="39.68" height="10.77" rx="1.54" style="fill:#fff;opacity:0.5"></rect><polygon points="131.29 265.08 129.71 265.91 130.01 264.15 128.73 262.9 130.5 262.64 131.29 261.04 132.08 262.64 133.85 262.9 132.57 264.15 132.87 265.91 131.29 265.08" style="fill:#407BFF"></polygon><polygon points="138.64 265.08 137.06 265.91 137.36 264.15 136.08 262.9 137.85 262.64 138.64 261.04 139.43 262.64 141.2 262.9 139.92 264.15 140.22 265.91 138.64 265.08" style="fill:#407BFF"></polygon><polygon points="145.99 265.08 144.4 265.91 144.71 264.15 143.43 262.9 145.19 262.64 145.99 261.04 146.78 262.64 148.54 262.9 147.26 264.15 147.57 265.91 145.99 265.08" style="fill:#fff;opacity:0.9"></polygon><polygon points="145.99 265.08 144.4 265.91 144.71 264.15 143.43 262.9 145.19 262.64 145.99 261.04 145.99 265.08" style="fill:#407BFF"></polygon><polygon points="153.33 265.08 151.75 265.91 152.05 264.15 150.77 262.9 152.54 262.64 153.33 261.04 154.12 262.64 155.89 262.9 154.61 264.15 154.91 265.91 153.33 265.08" style="fill:#fff;opacity:0.9"></polygon><polygon points="160.68 265.08 159.1 265.91 159.4 264.15 158.12 262.9 159.89 262.64 160.68 261.04 161.47 262.64 163.24 262.9 161.96 264.15 162.26 265.91 160.68 265.08" style="fill:#fff;opacity:0.9"></polygon><rect x="180.83" y="251.95" width="8.11" height="15.35" style="fill:#407BFF"></rect><rect x="200.41" y="246.09" width="8.11" height="21.21" style="fill:#407BFF"></rect><rect x="219.98" y="235.32" width="8.11" height="31.98" style="fill:#407BFF"></rect><rect x="190.62" y="243.14" width="8.11" height="24.17" style="fill:#263238"></rect><rect x="210.19" y="240.7" width="8.11" height="26.6" style="fill:#263238"></rect><rect x="229.77" y="241.33" width="8.11" height="25.97" style="fill:#263238"></rect><g style="opacity:0.6000000000000001"><rect x="190.62" y="243.14" width="8.11" height="24.17" style="fill:#fff"></rect><rect x="210.19" y="240.7" width="8.11" height="26.6" style="fill:#fff"></rect><rect x="229.77" y="241.33" width="8.11" height="25.97" style="fill:#fff"></rect></g><rect x="239.56" y="232.24" width="8.11" height="35.06" style="fill:#407BFF"></rect><polygon points="325.65 267.3 258.81 267.3 263.34 251.95 272.65 243.14 282.44 256.69 292.23 240.7 302.02 251.31 311.81 241.33 321.6 232.24 325.65 232.24 325.65 267.3" style="fill:#407BFF"></polygon><polygon points="325.65 267.3 258.81 267.3 263.34 257.05 272.65 249.51 282.44 256.69 292.23 248.35 302.02 251.31 311.81 248.98 321.6 244.99 325.65 232.24 325.65 267.3" style="fill:#fff;opacity:0.8"></polygon><path d="M353.46,216.75h16.29a16.3,16.3,0,0,0-32.59,0h16.3Z" style="fill:#407BFF"></path><path d="M353.46,216.75h16.29a16.3,16.3,0,0,0-32.59,0h16.3Z" style="fill:#fff;opacity:0.5"></path><path d="M365,205.23a16.3,16.3,0,0,0-27.82,11.52h16.3Z" style="fill:#fff;opacity:0.7000000000000001"></path><path d="M341.93,205.21l11.53,11.52v-16.3A16.27,16.27,0,0,0,341.93,205.21Z" style="opacity:0.2"></path><path d="M341.93,205.21l11.53,11.52v-16.3A16.27,16.27,0,0,0,341.93,205.21Z" style="fill:#407BFF"></path><path d="M341.93,205.21l11.53,11.52v-16.3A16.27,16.27,0,0,0,341.93,205.21Z" style="fill:#fff;opacity:0.5"></path><path d="M362.44,208.94l-1.17-1.18-7.37,7.35a1.69,1.69,0,1,0-.44,3.32,1.7,1.7,0,0,0,1.7-1.7,1.56,1.56,0,0,0-.09-.44Z"></path><path d="M353.46,242.36h16.29a16.3,16.3,0,1,0-32.59,0h16.3Z" style="fill:#407BFF"></path><path d="M353.46,242.36h16.29a16.3,16.3,0,1,0-32.59,0h16.3Z" style="fill:#fff;opacity:0.5"></path><path d="M365,230.83a16.3,16.3,0,0,0-27.82,11.53h16.3Z" style="fill:#fff;opacity:0.7000000000000001"></path><path d="M341.93,230.81l11.53,11.52V226A16.26,16.26,0,0,0,341.93,230.81Z" style="fill:#407BFF"></path><path d="M341.93,230.81l11.53,11.52V226A16.26,16.26,0,0,0,341.93,230.81Z" style="fill:#fff;opacity:0.5"></path><path d="M354.28,240.88v-9.47h-1.65v9.47a1.66,1.66,0,0,0-.88,1.45,1.71,1.71,0,1,0,3.41,0A1.66,1.66,0,0,0,354.28,240.88Z"></path><path d="M353.46,268h16.29a16.3,16.3,0,0,0-32.59,0h16.3Z" style="fill:#407BFF"></path><path d="M353.46,268h16.29a16.3,16.3,0,0,0-32.59,0h16.3Z" style="fill:#fff;opacity:0.5"></path><path d="M365,256.44A16.3,16.3,0,0,0,337.16,268h16.3Z" style="fill:#fff;opacity:0.7000000000000001"></path><path d="M341.93,256.42l11.53,11.52V251.65A16.26,16.26,0,0,0,341.93,256.42Z" style="fill:#407BFF"></path><path d="M341.93,256.42l11.53,11.52V251.65A16.26,16.26,0,0,0,341.93,256.42Z" style="fill:#fff;opacity:0.5"></path><path d="M362.44,260.15,361.27,259l-7.37,7.36a1.69,1.69,0,1,0-.44,3.31,1.7,1.7,0,0,0,1.7-1.7,1.56,1.56,0,0,0-.09-.44Z"></path><path d="M375.61,102.86l-10.95.12a2.72,2.72,0,0,0-2.69,2.75l.1,9.16a2.72,2.72,0,0,0,2.74,2.7l3.17,0,1.37,2.11a1.16,1.16,0,0,0,2,0l1.3-2.17,3.15,0a2.71,2.71,0,0,0,2.7-2.75l-.1-9.14A2.71,2.71,0,0,0,375.61,102.86Z" style="fill:#407BFF"></path><path d="M367.19,110.28a1.07,1.07,0,0,1,.45.39,1.09,1.09,0,0,1,.16.58,1.11,1.11,0,0,1-.18.63,1.1,1.1,0,0,1-.49.41,1.51,1.51,0,0,1-.68.15,1.57,1.57,0,0,1-1.18-.46,1.87,1.87,0,0,1-.42-1.31,2.22,2.22,0,0,1,.23-1,1.57,1.57,0,0,1,.64-.66,1.93,1.93,0,0,1,.95-.22,2.51,2.51,0,0,1,.55.06,1.41,1.41,0,0,1,.45.18l-.31.61a1.17,1.17,0,0,0-.67-.18,1,1,0,0,0-.72.26,1.14,1.14,0,0,0-.28.77,1.18,1.18,0,0,1,.88-.31A1.29,1.29,0,0,1,367.19,110.28Zm-.36,1.4a.53.53,0,0,0,0-.78.7.7,0,0,0-.88,0,.46.46,0,0,0-.18.38.49.49,0,0,0,.17.38.67.67,0,0,0,.46.15A.65.65,0,0,0,366.83,111.68Z" style="fill:#fff"></path><path d="M368.84,112.22a1.49,1.49,0,0,1-.54-.64,2.13,2.13,0,0,1-.2-1,2.19,2.19,0,0,1,.2-1,1.45,1.45,0,0,1,2.66,0,2.33,2.33,0,0,1,.2,1,2.27,2.27,0,0,1-.2,1,1.48,1.48,0,0,1-2.12.64Zm1.3-.76a2.09,2.09,0,0,0,0-1.74.59.59,0,0,0-.51-.28.6.6,0,0,0-.51.28,2.19,2.19,0,0,0,0,1.74.58.58,0,0,0,.51.28A.57.57,0,0,0,370.14,111.46Z" style="fill:#fff"></path><path d="M371.75,110.47a1.16,1.16,0,0,1,0-1.44.82.82,0,0,1,.64-.26.83.83,0,0,1,.64.26,1.2,1.2,0,0,1,0,1.44.83.83,0,0,1-.64.26A.82.82,0,0,1,371.75,110.47Zm.91-.3a.93.93,0,0,0,0-.84.32.32,0,0,0-.54,0,.93.93,0,0,0,0,.84.32.32,0,0,0,.54,0Zm1.85-1.36h.61l-2.44,3.57h-.6Zm-.16,3.49A.81.81,0,0,1,374,112a1.21,1.21,0,0,1-.11-.52,1.24,1.24,0,0,1,.11-.52.79.79,0,0,1,.31-.34.9.9,0,0,1,.46-.12.82.82,0,0,1,.64.27,1,1,0,0,1,.25.71,1,1,0,0,1-.25.72.82.82,0,0,1-.64.27A.9.9,0,0,1,374.35,112.3Zm.73-.45a.69.69,0,0,0,.1-.42.73.73,0,0,0-.1-.42.33.33,0,0,0-.54,0,.73.73,0,0,0-.1.42.74.74,0,0,0,.1.43.33.33,0,0,0,.27.14A.29.29,0,0,0,375.08,111.85Z" style="fill:#fff"></path><path d="M364.85,150.77l10.95-.12a2.72,2.72,0,0,0,2.69-2.75l-.1-9.17a2.71,2.71,0,0,0-2.74-2.69l-3.17,0L371.11,134a1.15,1.15,0,0,0-2,0l-1.3,2.17-3.15,0a2.71,2.71,0,0,0-2.7,2.75l.09,9.14A2.73,2.73,0,0,0,364.85,150.77Z" style="fill:#263238"></path><path d="M367.3,144a1,1,0,0,1,.36.81,1.12,1.12,0,0,1-.17.59,1.15,1.15,0,0,1-.49.43,2,2,0,0,1-.83.16,3.07,3.07,0,0,1-.74-.1,2.08,2.08,0,0,1-.62-.28l.33-.64a1.39,1.39,0,0,0,.47.24,1.61,1.61,0,0,0,.54.08.87.87,0,0,0,.49-.12.38.38,0,0,0,.18-.34.39.39,0,0,0-.19-.35,1.38,1.38,0,0,0-.64-.11h-.91l.18-2h2.18V143H366l-.06.68h.29A1.72,1.72,0,0,1,367.3,144Z" style="fill:#fff"></path><path d="M368.73,145.72a1.49,1.49,0,0,1-.54-.64,2.27,2.27,0,0,1-.2-1,2.33,2.33,0,0,1,.2-1,1.4,1.4,0,0,1,.54-.63,1.43,1.43,0,0,1,.79-.22,1.4,1.4,0,0,1,.79.22,1.49,1.49,0,0,1,.55.63,2.33,2.33,0,0,1,.19,1,2.27,2.27,0,0,1-.19,1,1.58,1.58,0,0,1-.55.64,1.4,1.4,0,0,1-.79.22A1.43,1.43,0,0,1,368.73,145.72ZM370,145a1.56,1.56,0,0,0,.19-.87,1.5,1.5,0,0,0-.19-.86.58.58,0,0,0-1,0,1.5,1.5,0,0,0-.19.86,1.56,1.56,0,0,0,.19.87.6.6,0,0,0,1,0Z" style="fill:#fff"></path><path d="M371.64,144a1.16,1.16,0,0,1,0-1.44.87.87,0,0,1,.64-.26.85.85,0,0,1,.64.26,1.2,1.2,0,0,1,0,1.44.82.82,0,0,1-.64.26A.83.83,0,0,1,371.64,144Zm.91-.3a.93.93,0,0,0,0-.84.29.29,0,0,0-.27-.15.32.32,0,0,0-.27.15.93.93,0,0,0,0,.84.32.32,0,0,0,.27.15A.29.29,0,0,0,372.55,143.67Zm1.86-1.36H375l-2.44,3.57H372Zm-.16,3.49a.84.84,0,0,1-.32-.35,1.21,1.21,0,0,1-.11-.52,1.24,1.24,0,0,1,.11-.52.81.81,0,0,1,.32-.34.84.84,0,0,1,.45-.12.81.81,0,0,1,.64.27,1,1,0,0,1,.25.71,1,1,0,0,1-.25.72.81.81,0,0,1-.64.27A.84.84,0,0,1,374.25,145.8Zm.73-.45a.76.76,0,0,0,.1-.42.81.81,0,0,0-.1-.42.34.34,0,0,0-.28-.14.33.33,0,0,0-.27.14.73.73,0,0,0-.1.42.74.74,0,0,0,.1.43.33.33,0,0,0,.27.14A.32.32,0,0,0,375,145.35Z" style="fill:#fff"></path><path d="M260.75,213.69a1.32,1.32,0,0,1,0-2.63h40.68a1.32,1.32,0,1,1,0,2.63Z" style="fill:#263238"></path><path d="M260.75,223.17a1.32,1.32,0,0,1,0-2.63H293.5a1.32,1.32,0,1,1,0,2.63Z" style="fill:#263238"></path><path d="M260.75,218.43a1.32,1.32,0,0,1,0-2.63h29.41a1.32,1.32,0,0,1,0,2.63Z" style="fill:#263238"></path><g style="opacity:0.5"><path d="M260.75,213.69a1.32,1.32,0,0,1,0-2.63h40.68a1.32,1.32,0,1,1,0,2.63Z" style="fill:#fff"></path><path d="M260.75,223.17a1.32,1.32,0,0,1,0-2.63H293.5a1.32,1.32,0,1,1,0,2.63Z" style="fill:#fff"></path><path d="M260.75,218.43a1.32,1.32,0,0,1,0-2.63h29.41a1.32,1.32,0,0,1,0,2.63Z" style="fill:#fff"></path></g><path d="M182.14,213.69a1.32,1.32,0,0,1,0-2.63h40.68a1.32,1.32,0,1,1,0,2.63Z" style="fill:#263238"></path><path d="M182.14,223.17a1.32,1.32,0,0,1,0-2.63H206a1.32,1.32,0,0,1,0,2.63Z" style="fill:#263238"></path><path d="M182.14,218.43a1.32,1.32,0,0,1,0-2.63h34.51a1.32,1.32,0,0,1,0,2.63Z" style="fill:#263238"></path><g style="opacity:0.5"><path d="M182.14,213.69a1.32,1.32,0,0,1,0-2.63h40.68a1.32,1.32,0,1,1,0,2.63Z" style="fill:#fff"></path><path d="M182.14,223.17a1.32,1.32,0,0,1,0-2.63H206a1.32,1.32,0,0,1,0,2.63Z" style="fill:#fff"></path><path d="M182.14,218.43a1.32,1.32,0,0,1,0-2.63h34.51a1.32,1.32,0,0,1,0,2.63Z" style="fill:#fff"></path></g></g></svg>